<!-- icon666.com - MILLIONS vector ICONS FREE --><svg id="Layer_1" enable-background="new 0 0 100 100" viewBox="0 0 100 100" xmlns="http://www.w3.org/2000/svg"><g fill="#ffdd71"><path d="m50 33.295c.377-.567.854-1.045 1.421-1.422-.566-.377-1.044-.854-1.421-1.421-.377.567-.854 1.044-1.421 1.421.567.377 1.044.855 1.421 1.422z"></path><path d="m49.67 89c21.538 0 39.06-17.522 39.06-39.061 0-18.616-13.296-34.519-31.087-38.23 9.238 6.283 14.981 16.873 14.981 28.226 0 18.798-15.294 34.091-34.092 34.091-10.198 0-19.603-4.43-26.03-12.063 5.125 15.933 20.021 27.037 37.168 27.037z"></path><path d="m30.385 63.284c.679-1.286 1.686-2.294 2.972-2.973-1.286-.679-2.293-1.687-2.972-2.973-.679 1.286-1.687 2.294-2.973 2.973 1.286.679 2.294 1.687 2.973 2.973z"></path><path d="m35.398 20.378c.679-1.286 1.687-2.294 2.973-2.973-1.286-.679-2.294-1.687-2.973-2.973-.679 1.286-1.686 2.294-2.972 2.973 1.287.679 2.294 1.687 2.972 2.973z"></path></g><path d="m27.994 18.405c4.13 0 6.404 2.274 6.404 6.405 0 .553.447 1 1 1s1-.447 1-1c0-4.131 2.274-6.405 6.405-6.405.553 0 1-.447 1-1s-.447-1-1-1c-4.131 0-6.405-2.274-6.405-6.405 0-.553-.447-1-1-1s-1 .447-1 1c0 4.131-2.274 6.405-6.404 6.405-.553 0-1 .447-1 1s.447 1 1 1zm7.404-3.972c.679 1.286 1.687 2.294 2.973 2.973-1.286.679-2.294 1.687-2.973 2.973-.679-1.286-1.686-2.294-2.972-2.973 1.287-.679 2.294-1.687 2.972-2.973z"></path><path d="m44.899 32.873c2.645 0 4.101 1.457 4.101 4.102 0 .553.447 1 1 1s1-.447 1-1c0-2.645 1.456-4.102 4.101-4.102.553 0 1-.447 1-1s-.447-1-1-1c-2.645 0-4.101-1.456-4.101-4.101 0-.553-.447-1-1-1s-1 .447-1 1c0 2.645-1.456 4.101-4.101 4.101-.553 0-1 .447-1 1s.448 1 1 1zm5.101-2.421c.377.567.854 1.044 1.421 1.421-.566.377-1.044.854-1.421 1.422-.377-.567-.854-1.045-1.421-1.422.567-.377 1.044-.853 1.421-1.421z"></path><path d="m22.979 61.312c4.131 0 6.405 2.274 6.405 6.405 0 .553.447 1 1 1s1-.447 1-1c0-4.131 2.274-6.405 6.404-6.405.553 0 1-.447 1-1s-.447-1-1-1c-4.13 0-6.404-2.274-6.404-6.405 0-.553-.447-1-1-1s-1 .447-1 1c0 4.131-2.274 6.405-6.405 6.405-.553 0-1 .447-1 1s.448 1 1 1zm7.406-3.973c.679 1.286 1.686 2.294 2.972 2.973-1.286.679-2.293 1.687-2.972 2.973-.679-1.286-1.687-2.294-2.973-2.973 1.286-.679 2.294-1.687 2.973-2.973z"></path><path d="m49.67 91c22.641 0 41.06-18.42 41.06-41.061 0-21.389-16.697-39.371-38.013-40.937-.471-.031-.917.277-1.04.742-.123.467.104.953.54 1.159 11.182 5.28 18.407 16.676 18.407 29.03 0 17.695-14.396 32.091-32.092 32.091-11.278 0-21.525-5.756-27.41-15.397-.251-.411-.762-.582-1.209-.413-.45.172-.715.64-.628 1.113 3.548 19.512 20.532 33.673 40.385 33.673zm-11.137-16.975c18.798 0 34.092-15.293 34.092-34.091 0-11.353-5.743-21.942-14.981-28.226 17.791 3.712 31.087 19.614 31.087 38.23-.001 21.54-17.523 39.062-39.061 39.062-17.146 0-32.043-11.104-37.167-27.038 6.428 7.634 15.832 12.063 26.03 12.063z"></path></svg>